Coordinates
version=1
nRows=8
nColumns=40
inDegrees=yes

Units are S.I. units (second, meters, Newtons, ...)
Angles are in degrees.

endheader
time	pelvis_tilt	pelvis_list	pelvis_rotation	pelvis_tx	pelvis_ty	pelvis_tz	hip_flexion_r	hip_adduction_r	hip_rotation_r	knee_angle_r	knee_angle_r_beta	ankle_angle_r	subtalar_angle_r	mtp_angle_r	hip_flexion_l	hip_adduction_l	hip_rotation_l	knee_angle_l	knee_angle_l_beta	ankle_angle_l	subtalar_angle_l	mtp_angle_l	lumbar_extension	lumbar_bending	lumbar_rotation	arm_flex_r	arm_add_r	arm_rot_r	elbow_flex_r	pro_sup_r	wrist_flex_r	wrist_dev_r	arm_flex_l	arm_add_l	arm_rot_l	elbow_flex_l	pro_sup_l	wrist_flex_l	wrist_dev_l
     16.87000000	     -2.50550131	     -4.26750800	     -8.74194664	      0.90949487	      0.92958841	      0.42488070	     24.93053775	     -1.39341127	     -8.41583671	     23.05579574	     23.05579574	      4.53582343	     -1.31859086	      0.71852721	      7.06937644	     -2.88853615	    -13.14089904	     20.46474247	     20.46474247	     17.53752694	    -15.18680273	     -0.54295442	    -10.84191252	      6.02095423	      1.28690608	    -15.65687285	    -15.09458543	    -11.93577756	     24.90026523	     47.23821310	      0.00000000	      0.00000000	     31.05362620	    -19.99592132	     -3.46290008	     61.02881946	     46.96044652	      0.00000000	      0.00000000
     16.88957143	     -2.62980489	     -4.07164054	     -9.31088362	      0.90977486	      0.92888908	      0.42724879	     24.56864299	     -1.31555543	     -8.91074903	     21.26893432	     21.26893432	      4.15485216	      1.34520225	      0.51069896	      6.42101435	     -2.75097663	    -13.77581947	     19.89709547	     19.89709547	     17.29148278	    -15.15768385	     -1.74242213	    -10.92011813	      5.99915411	      1.10873494	    -16.93220458	    -14.77306309	    -13.89561531	     27.15313753	     47.22998793	      0.00000000	      0.00000000	     30.99784398	    -20.61606921	     -4.81848935	     64.07347534	     47.13882252	      0.00000000	      0.00000000
     16.90914286	     -2.88522375	     -3.87985500	     -9.86506938	      0.91013303	      0.92784767	      0.42998490	     24.38028157	     -1.07449779	     -8.82595023	     19.89072600	     19.89072600	      3.84611274	      2.62488227	      0.71953921	      6.07688859	     -2.66895208	    -14.23959977	     19.68487403	     19.68487403	     17.49570603	    -15.17747879	     -1.82439896	    -10.69763142	      5.97772660	      1.21092404	    -17.31436239	    -14.50221038	    -14.00489161	     27.10208750	     47.23048573	      0.00000000	      0.00000000	     31.82543551	    -21.04878575	     -5.12856724	     64.71343296	     47.18114116	      0.00000000	      0.00000000
     16.92871429	     -2.95096130	     -3.86732359	    -10.38388318	      0.91094576	      0.92715982	      0.43285624	     23.77665817	     -0.78763877	     -9.23071661	     18.59591674	     18.59591674	      3.48980921	      4.44632738	      0.64810365	      5.41429934	     -2.74810642	    -14.76005064	     19.36962032	     19.36962032	     17.76737137	    -15.02829040	     -1.96367361	    -10.76140013	      6.11695028	      1.47361978	    -17.63576192	    -14.20387312	    -14.28740988	     27.24644352	     47.23106493	      0.00000000	      0.00000000	     32.38795181	    -21.16999582	     -5.64994574	     65.93881288	     47.24825600	      0.00000000	      0.00000000
     16.94828571	     -3.07712899	     -3.79518094	    -10.88994312	      0.91198818	      0.92621770	      0.43600424	     23.39167624	     -0.55755551	     -9.46133846	     17.89956997	     17.89956997	      3.22261383	      5.73900823	      0.03789235	      4.86371716	     -2.79608647	    -15.25595928	     19.16317085	     19.16317085	     18.03151297	    -14.90509756	     -2.07043880	    -10.72006099	      6.22951189	      1.62367489	    -17.68938980	    -13.87655662	    -14.76616422	     27.60819177	     47.23313662	      0.00000000	      0.00000000	     32.61882070	    -21.32634972	     -6.58160539	     67.51158337	     47.35015972	      0.00000000	      0.00000000
     16.96785714	     -3.27115258	     -3.68526307	    -11.34848013	      0.91321488	      0.92512444	      0.43938329	     23.11016996	     -0.28673699	     -9.25611584	     17.46460361	     17.46460361	      2.62655076	      5.95199365	     -1.90331404	      4.46046232	     -2.82887126	    -15.63267941	     19.11211229	     19.11211229	     18.38715079	    -14.87222015	     -1.96432549	    -10.57059935	      6.28936345	      1.17954156	    -17.07345741	    -13.53275187	    -15.91507834	     27.94182898	     47.25187828	      0.00000000	      0.00000000	     32.10764290	    -21.65851165	     -8.65633570	     69.73400997	     47.55069877	      0.00000000	      0.00000000
     16.98742857	     -3.54506560	     -3.66943699	    -11.74478120	      0.91458835	      0.92410289	      0.44298456	     23.00125026	      0.05164078	     -9.04880147	     17.50605274	     17.50605274	      2.82189562	      6.09929552	     -2.03921794	      4.11002987	     -2.97331514	    -15.84455876	     19.02407358	     19.02407358	     18.59662364	    -15.04020166	     -1.95239665	    -10.26758222	      6.47249189	      1.31532570	    -16.75602420	    -13.27149203	    -15.88375531	     28.03094738	     47.24597340	      0.00000000	      0.00000000	     32.47422479	    -21.79047519	     -8.75699749	     69.93573589	     47.56427289	      0.00000000	      0.00000000
     17.00700000	     -3.56313901	     -3.67544311	    -12.16026525	      0.91625354	      0.92370769	      0.44688820	     22.60985629	      0.43052135	     -8.48001837	     17.67334426	     17.67334426	      2.87690391	      5.60464555	     -2.65427515	      3.28530878	     -3.07438189	    -16.28072486	     18.62125014	     18.62125014	     18.83344002	    -14.80686702	     -1.65281623	    -10.34515005	      6.59351482	      1.67348834	    -16.20505305	    -12.94659368	    -15.99739805	     27.94638104	     47.24638956	      0.00000000	      0.00000000	     32.66741699	    -21.58200506	     -9.56924858	     71.09220340	     47.64553153	      0.00000000	      0.00000000
